<svg width="56" height="56" viewBox="0 0 56 56" fill="none" xmlns="http://www.w3.org/2000/svg">
<path d="M56 28C56 43.464 43.464 56 28 56C12.536 56 0 43.464 0 28C0 12.536 12.536 0 28 0C43.464 0 56 12.536 56 28Z" fill="url(#paint0_linear_239_3504)"/>
<path d="M14 41.7908V25.5817C14 17.8973 20.2132 11.6667 27.8786 11.6667C35.5441 11.6667 41.7573 17.8953 41.7573 25.5797V41.7888H36.1442L36.4143 31.2107C36.5003 27.8397 36.4683 24.4667 36.3162 21.0978C36.2142 18.8498 34.6279 16.9467 32.4395 16.4474L32.0274 16.3532C29.2969 15.7315 26.4604 15.7315 23.7298 16.3532L23.2898 16.4534C21.1173 16.9487 19.541 18.8378 19.441 21.0697V21.0978C19.287 24.4667 19.255 27.8397 19.341 31.2107L19.611 41.7888H14V41.7908Z" fill="white"/>
<defs>
<linearGradient id="paint0_linear_239_3504" x1="56" y1="39.5177" x2="-30.3333" y2="39.6667" gradientUnits="userSpaceOnUse">
<stop stop-color="#1001A7"/>
<stop offset="1" stop-color="#8B1397"/>
</linearGradient>
</defs>
</svg>
