
<svg width="280" height="280" viewBox="0 0 280 280" fill="none" xmlns="http://www.w3.org/2000/svg">
<path d="M213.936 228.356C220.28 221.698 224.425 212.662 225.608 202.91C225.828 201.098 226.438 196.113 227.296 189.13C240.612 80.5094 240.612 79.2969 240.612 77.6205C240.612 77.2077 240.605 76.7804 240.59 76.3531C240.247 65.6299 235.346 55.4545 227.146 48.4274C218.819 41.2907 207.803 37.9598 196.919 39.2856L72.8169 54.4391C57.1813 56.3493 44.084 67.7482 40.2235 82.8068C39.4127 85.966 39 89.2312 39 92.511C39 92.9274 39.0073 93.3547 39.0219 93.7966C39.4785 107.745 47.6451 120.342 60.3333 126.671C74.6212 133.403 103.427 141.182 120.542 158.297C137.657 175.412 145.392 204.181 152.124 218.465L152.171 218.557C158.526 231.365 171.2 239.62 185.254 240.094C185.699 240.109 186.145 240.116 186.587 240.116C196.992 240.116 206.704 235.938 213.932 228.348L213.936 228.356Z" fill="black"/>
<path d="M161.755 201.259C161.755 214.974 172.916 226.106 186.583 226.106C200.25 226.106 211.452 214.934 211.452 201.259C211.452 187.585 200.29 176.413 186.583 176.413C172.88 176.413 161.755 187.585 161.755 201.259Z" fill="#00AAFF"/>
<path d="M176.645 77.8617C176.645 91.5762 187.806 102.708 201.473 102.708C215.14 102.708 226.342 91.536 226.342 77.8617C226.342 64.1874 215.18 53.0149 201.473 53.0149C187.77 53.0149 176.645 64.1874 176.645 77.8617Z" fill="#FF4053"/>
<path d="M53.2703 92.7528C53.2703 106.467 64.4318 117.6 78.139 117.6C91.8462 117.6 102.968 106.427 102.968 92.7528C102.968 79.0785 91.806 67.906 78.139 67.906C64.472 67.906 53.2703 79.0785 53.2703 92.7528Z" fill="#23E476"/>
</svg>
