<?xml version="1.0" standalone="no"?>
<!DOCTYPE svg PUBLIC "-//W3C//DTD SVG 20010904//EN"
 "http://www.w3.org/TR/2001/REC-SVG-20010904/DTD/svg10.dtd">
<svg version="1.0" xmlns="http://www.w3.org/2000/svg"
 width="286.000000pt" height="358.000000pt" viewBox="0 0 286.000000 358.000000"
 preserveAspectRatio="xMidYMid meet">

<g transform="translate(0.000000,358.000000) scale(0.100000,-0.100000)"
fill="#000000" stroke="none">
<path d="M1845 3460 c-297 -66 -564 -124 -592 -130 l-53 -11 0 -197 0 -197 63
-33 c210 -111 426 -222 431 -222 3 0 6 83 6 184 l0 184 68 17 c67 17 623 145
629 145 2 0 3 86 3 190 0 105 -3 190 -7 189 -5 0 -251 -54 -548 -119z"/>
<path d="M1785 2521 l-790 -197 -3 -305 -2 -305 302 -165 c166 -90 314 -169
330 -176 l28 -12 1 67 c0 37 0 155 1 263 l0 196 197 55 c108 30 321 88 473
129 l278 74 0 288 c0 223 -3 287 -12 286 -7 -1 -368 -90 -803 -198z"/>
<path d="M2680 1469 c-91 -28 -311 -92 -490 -144 -775 -224 -2185 -637 -2189
-640 -9 -10 145 -192 253 -300 133 -132 259 -232 414 -325 l100 -61 1041 337
1041 338 0 423 c0 233 -1 423 -2 422 -2 -1 -77 -23 -168 -50z"/>
</g>
</svg>
