<svg width="61" height="60" viewBox="0 0 61 60" fill="none" xmlns="http://www.w3.org/2000/svg">
<path d="M30.2197 54.001C23.3068 49.9972 16.4131 46.0042 9.51758 42.01V17.992C16.4047 14.0026 23.3062 10.0054 30.2197 6.00098C37.1212 9.99818 44.0143 13.9912 50.9176 17.989V42.0124C44.0322 46.0006 37.1385 49.9936 30.2197 54.001Z" fill="#FFA501"/>
<path d="M45.508 39.0061C40.4125 42.0031 35.327 44.9947 30.218 48C25.1354 45.0103 20.0464 42.0169 14.918 39.0002C17.4793 37.493 20.0064 36.0062 22.5671 34.5002C20.0052 32.9931 17.4704 31.5021 14.9309 30.0075V20.9927C20.0205 17.9987 25.1119 15.0036 30.218 12C35.307 14.9934 40.396 17.9867 45.518 20.9999C42.9596 22.5046 40.4372 23.9884 37.8688 25.4998C40.436 27.01 42.972 28.5021 45.508 29.9937V39.0061ZM30.2186 39.0002C32.7681 37.5002 35.3017 36.0098 37.8677 34.5002C35.3058 32.9931 32.7775 31.5057 30.2191 30.0003C32.7787 28.4943 35.3087 27.0058 37.8677 25.4998C35.2905 23.9836 32.7545 22.492 30.2186 21.0005C27.6708 22.4992 25.1378 23.989 22.5689 25.5004C25.1319 27.0081 27.6585 28.4943 30.218 30.0003C27.6567 31.5069 25.129 32.9943 22.5689 34.5002C25.136 36.0104 27.6702 37.5008 30.2186 39.0002Z" fill="white"/>
</svg>
