<svg version="1.2" xmlns="http://www.w3.org/2000/svg" viewBox="0 0 551 550" width="551" height="550">
	<style>
		.s0 { fill: #000000 } 
	</style>
	<path class="s0" d="m413.72 37.04c-42.27-24.41-88.03-37.04-137.72-37.04-49.69 0-95.44 12.2-137.72 37.04-42.27 24.84-75.4 57.96-100.24 100.24-24.84 42.27-37.04 88.03-37.04 137.72 0 49.69 12.2 95.44 37.04 137.72 24.84 42.27 57.96 75.4 100.24 100.24 42.27 24.84 88.03 37.04 137.72 37.04 49.69 0 95.44-12.2 137.72-37.04 42.27-24.84 75.4-57.96 100.24-100.24 24.84-42.28 37.04-88.03 37.04-137.72 0-49.69-12.2-95.44-37.04-137.72-24.84-42.27-57.96-75.4-100.24-100.24zm-120.72 337.33c-30.94 0-55.78-8.72-74.96-26.58-13.07-12.2-21.35-27.02-25.71-44.45h296.36c-3.05 25.28-10.46 48.81-21.79 71.04h-174.33 0.44zm-100.24-126.83c3.92-17 12.64-31.81 25.28-44.02 18.74-17.87 44.02-27.02 74.96-27.02h175.2c11.33 22.23 18.3 45.76 20.92 71.04zm-102.42-81.93c19.18-33.12 44.89-59.27 77.58-78.88 32.69-19.61 68.86-29.2 108.08-29.2 39.22 0 75.4 9.59 108.08 29.2 16.56 10.02 31.81 21.79 44.89 35.3h-138.59q-47.07 0-83.68 19.61c-24.41 13.07-43.58 30.94-57.09 54.04q-14.38 24.19-18.3 52.3h-67.99c3.49-29.2 12.2-56.66 27.02-81.93zm293.74 297.66c-32.69 19.61-68.86 29.2-108.08 29.2-39.22 0-75.4-9.59-108.08-29.2-32.69-19.61-58.84-45.76-77.58-78.88-14.38-24.84-23.53-51.86-27.02-80.63h67.99q3.92 28.11 18.3 52.3c13.51 22.66 32.69 40.97 57.09 54.04q36.61 19.61 83.68 19.61h137.28c-13.07 13.07-27.46 24.41-43.58 33.99v-0.44z"/>
</svg>